<svg xmlns="http://www.w3.org/2000/svg" xmlns:xlink="http://www.w3.org/1999/xlink" viewBox="0 0 1141.7 209.08"><defs><style>.cls-1{fill:url(#linear-gradient);}.cls-2{fill:url(#linear-gradient-2);}.cls-3{fill:url(#linear-gradient-3);}.cls-4{fill:url(#linear-gradient-4);}.cls-5{fill:url(#linear-gradient-5);}.cls-6{fill:#fdfff5;}</style><linearGradient id="linear-gradient" x1="148.61" y1="4.05" x2="93.23" y2="169.56" gradientUnits="userSpaceOnUse"><stop offset="0" stop-color="#ffe53b"/><stop offset="1" stop-color="#ff2525"/></linearGradient><linearGradient id="linear-gradient-2" x1="6.66" y1="109.96" x2="273.06" y2="109.96" gradientUnits="userSpaceOnUse"><stop offset="0" stop-color="#e31372"/><stop offset="1" stop-color="#6b0f1a"/></linearGradient><linearGradient id="linear-gradient-3" x1="-255.85" y1="92.16" x2="1287.41" y2="92.16" xlink:href="#linear-gradient-2"/><linearGradient id="linear-gradient-4" x1="-18.58" y1="102.94" x2="290.17" y2="102.94" gradientUnits="userSpaceOnUse"><stop offset="0" stop-color="#6800ad"/><stop offset="1" stop-color="#000e8a"/></linearGradient><linearGradient id="linear-gradient-5" y1="128.72" x2="273.06" y2="128.72" gradientUnits="userSpaceOnUse"><stop offset="0" stop-color="#000747"/><stop offset="1" stop-color="#006dcc"/></linearGradient></defs><g id="Layer_2" data-name="Layer 2"><g id="Layer_2-2" data-name="Layer 2"><path class="cls-1" d="M210.57,81.11A85.74,85.74,0,0,0,172,14C132.14-12.13,78.42-.59,52,39.75A87.71,87.71,0,0,0,37.57,87.5v.19c16.47,13.31,39,25.6,68.14,28.79C154.33,121.83,190.77,98.46,210.57,81.11Z"/><path class="cls-2" d="M101.86,157.16c63,16.86,140.65-18.75,171.2-98.5-22.51,35.64-55.32,61.19-91.47,73.45C158.11,150.35,129.4,159.47,101.86,157.16Z"/><path class="cls-3" d="M105.64,116.49C38.84,109.14,6.44,53.9,3.32,48.36a125,125,0,0,0,37.6,58.78,118.22,118.22,0,0,0,32.49,20.18,113.23,113.23,0,0,0,24.88,7.12c52,8.6,105.39-20,128.94-70.58C224.86,67,179.16,124.57,105.64,116.49Z"/><path class="cls-4" d="M98.29,134.44a113.23,113.23,0,0,1-24.88-7.12,118,118,0,0,1-32.49-20.18A125,125,0,0,1,3.32,48.36a194.1,194.1,0,0,0,15.87,38C32.1,110,53.81,138.46,87.92,152.48a114.66,114.66,0,0,0,13.94,4.68c27.54,2.31,56.25-6.81,79.73-25a131.1,131.1,0,0,0,45.64-68.25C203.68,114.41,150.31,143.05,98.29,134.44Z"/><path class="cls-5" d="M3.31,48.36c2.16,7.62,23.48,79,84.61,104.11,64.93,26.67,152.29-8.06,185.14-93.81-34.59,96.94-106.46,156.3-169,150-36.65-3.72-63.67-29.36-67.44-33C-13.36,127,1.82,54.89,3.31,48.36Z"/><path class="cls-6" d="M299.35,26.27h13l31,57.75,31-57.75h13v88.36h-13V51.74l-31,57.75-31-57.75v62.89h-13Z"/><path class="cls-6" d="M400.06,26.27h13v88.36h-13Z"/><path class="cls-6" d="M425.79,26.27h30.48c28.55,0,48.88,18.26,48.88,44.12s-20.33,44.24-48.88,44.24H425.79ZM457,102.8c20.45,0,34.73-13.38,34.73-32.41S477.49,38.1,457,38.1H438.78v64.7Z"/><path class="cls-6" d="M515.57,26.27h13l50.8,67v-67h13v88.36h-13l-50.8-67v67h-13Z"/><path class="cls-6" d="M605.09,26.27h13v88.36h-13Z"/><path class="cls-6" d="M670,67h36.53v35.24c-8.36,8.49-22.25,13.9-34.73,13.9-24.82,0-46-21-46-45.79s21.22-45.66,46-45.66c12.48,0,26.37,5.27,34.73,13.89l-9.13,8.74c-6.05-6.56-16.46-10.67-25.6-10.67-17.75,0-32.67,15.43-32.67,33.7s14.92,33.82,32.67,33.82a37.56,37.56,0,0,0,21.87-7.33V78.36H670Z"/><path class="cls-6" d="M791,26.27v88.36H778v-39H729.72v39h-13V26.27h13v37.3H778V26.27Z"/><path class="cls-6" d="M826.58,38.36H797.64V26.27h71V38.36H839.57v76.27h-13Z"/><path class="cls-6" d="M899,101.9l7.85-9.65c7.84,7.46,17.1,12.35,29.07,12.35,12.21,0,18.52-6.43,18.52-13.5,0-8.37-7.33-11.58-22.13-14.92-18-4.25-30-9.65-30-25.6,0-14.79,12.86-26,30.61-26,13.63,0,23.79,5,32.28,12.48l-7.46,9.77c-7.46-6.82-16.33-10.8-25.34-10.8-9.9,0-16.85,6.3-16.85,13.37,0,8.23,7.59,11.06,22.13,14.54,17.62,4.11,29.84,10,29.84,25.85,0,14.92-11.32,26.24-32.16,26.24C920.6,116.05,908.38,110.9,899,101.9Z"/><path class="cls-6" d="M975.91,77.46V26.27h13V77.2c0,15.82,10.29,27.14,25,27.14S1038.67,93,1038.67,77.2V26.27h13.12V77.46c0,22.64-15.82,38.72-37.94,38.72S975.91,100.1,975.91,77.46Z"/><path class="cls-6" d="M1064.92,26.27h13l50.8,67v-67h13v88.36h-13l-50.8-67v67h-13Z"/><path class="cls-6" d="M297.85,173.24l4.42-5.43c4.42,4.2,9.63,6.95,16.36,6.95s10.43-3.62,10.43-7.6c0-4.71-4.13-6.52-12.45-8.4-10.14-2.39-16.88-5.43-16.88-14.41,0-8.33,7.25-14.63,17.24-14.63a26.37,26.37,0,0,1,18.17,7l-4.2,5.51c-4.2-3.84-9.19-6.09-14.26-6.09-5.58,0-9.49,3.55-9.49,7.54,0,4.63,4.27,6.22,12.46,8.18,9.92,2.32,16.8,5.65,16.8,14.55,0,8.4-6.37,14.78-18.11,14.78A28.73,28.73,0,0,1,297.85,173.24Z"/><path class="cls-6" d="M354.62,137.47H338.33v-6.81h40v6.81H361.94v42.94h-7.32Z"/><path class="cls-6" d="M382.36,159.48V130.66h7.31v28.68c0,8.9,5.8,15.28,14.05,15.28s14-6.38,14-15.28V130.66h7.38v28.82c0,12.75-8.9,21.8-21.36,21.8S382.36,172.23,382.36,159.48Z"/><path class="cls-6" d="M432.47,130.66h17.16c16.08,0,27.52,10.28,27.52,24.84s-11.44,24.91-27.52,24.91H432.47Zm17.6,43.09c11.51,0,19.55-7.53,19.55-18.25s-8-18.18-19.55-18.18H439.78v36.43Z"/><path class="cls-6" d="M482.22,130.66h7.31v49.75h-7.31Z"/><path class="cls-6" d="M493.88,155.5c0-14,11.87-25.71,25.85-25.71a25.75,25.75,0,1,1-25.85,25.71Zm44.1,0c0-10.28-8.33-19-18.25-19s-18.32,8.69-18.32,19,8.4,19,18.32,19S538,165.85,538,155.5Z"/></g></g></svg>